<?xml version="1.0" encoding="UTF-8"?>
<svg xmlns="http://www.w3.org/2000/svg" xmlns:xlink="http://www.w3.org/1999/xlink" viewBox="0 0 767.56 441.8">
  <defs>
    <style>
      .cls-1 {
        fill: #231815;
        stroke-width: 0px;
      }

      .cls-2 {
        stroke-width: 2px;
      }

      .cls-2, .cls-3, .cls-4, .cls-5, .cls-6, .cls-7 {
        stroke: #231815;
        stroke-miterlimit: 10;
      }

      .cls-2, .cls-3, .cls-4, .cls-7 {
        fill: #fff;
      }

      .cls-3, .cls-5 {
        stroke-width: .99px;
      }

      .cls-4 {
        stroke-width: .43px;
      }

      .cls-5, .cls-6 {
        fill: none;
      }

      .cls-6, .cls-7 {
        stroke-width: .71px;
      }
    </style>
  </defs>
  <g id="_图层_2" data-name="图层 2">
    <line class="cls-4" x1="244.83" y1="360.27" x2="764.17" y2="360.27"/>
    <line class="cls-4" x1="244.83" y1="422.14" x2="764.17" y2="422.14"/>
    <line class="cls-4" x1="244.83" y1="406.67" x2="764.17" y2="406.67"/>
    <line class="cls-4" x1="244.83" y1="391.21" x2="764.17" y2="391.21"/>
    <line class="cls-4" x1="244.83" y1="375.74" x2="764.17" y2="375.74"/>
  </g>
  <g id="_图层_3" data-name="图层 3">
    <circle class="cls-1" cx="524.38" cy="406.67" r="1.81"/>
    <circle class="cls-1" cx="692.55" cy="388.41" r="1.81"/>
    <circle class="cls-1" cx="660.2" cy="430.3" r="1.81"/>
    <path class="cls-1" d="M280.74,379.54c-.03-1.89-2.13-6.1-3.98-3.25-1.21,2.33-.65,5.16-.75,7.7,0,0-.5,0-.5,0,.21-2.96-.64-6.35,1.39-8.86,2.47-2.13,4.51,2.35,4.33,4.4,0,0-.5.02-.5.02h0Z"/>
    <path class="cls-1" d="M343.84,379.52c-.27-2.62,2.85-7.42,4.95-3.49,1.21,2.52.61,5.28.78,7.95,0,0-.5,0-.5,0-.09-2.54.46-5.37-.75-7.7-1.85-2.85-3.94,1.36-3.98,3.25,0,0-.5-.02-.5-.02h0Z"/>
  </g>
  <g id="_1" data-name="1">
    <line class="cls-2" x1="764.16" y1="360" x2="764.16" y2="422.14"/>
  </g>
  <g id="_0.5" data-name="0.5">
    <line class="cls-3" x1="244.83" y1="360" x2="244.83" y2="422.14"/>
    <line class="cls-3" x1="357.37" y1="360" x2="357.37" y2="422.14"/>
    <line class="cls-3" x1="711.83" y1="360" x2="711.83" y2="422.14"/>
    <line class="cls-3" x1="759.08" y1="360" x2="759.08" y2="422.14"/>
    <path class="cls-1" d="M417.81,340.49c-.44-1.64-1.85-.75-2.19.49-.91,3.32-.91,6.98-2.56,10.11-.33.55-1.83,2.22-2.39,1.32-.14-.27,0-.6.29-.69,1.3-.39,1.85-1.62,2.22-2.87.42-1.3.76-2.63.97-3.98.37-1.77.65-7.09,3.64-5.66.36.35,1.2,1.06.65,1.5-.23.16-.56.04-.63-.23h0Z"/>
    <path class="cls-1" d="M421.81,340.49c-.44-1.64-1.85-.75-2.19.49-.91,3.32-.91,6.98-2.56,10.11-.33.55-1.83,2.22-2.39,1.32-.14-.27,0-.6.29-.69,1.3-.39,1.85-1.62,2.22-2.87.42-1.3.76-2.63.97-3.98.37-1.77.65-7.09,3.64-5.66.36.35,1.2,1.06.65,1.5-.23.16-.56.04-.63-.23h0Z"/>
    <path class="cls-5" d="M725,350.82v-4.13c0-.67-1.31-1.15-2.03-1.24-.62-.08-1.45.04-2.27.49-.5.28-1.03.61-1.88,1.36"/>
    <path class="cls-5" d="M436.98,347.1c-6.24-.18-7.99-.13-8,0,0,.09.97.31,2.02.18.51-.06,1.29-.16,1.83-.63,1.12-.98,1.11-3.53-.27-4.99-.99-1.05-2.57-1.42-4.1-1.03"/>
    <line class="cls-3" x1="279.99" y1="379.71" x2="287.99" y2="379.71"/>
    <line class="cls-3" x1="303.1" y1="424.75" x2="311.1" y2="424.75"/>
    <line class="cls-3" x1="311.1" y1="424.75" x2="319.09" y2="424.75"/>
    <line class="cls-3" x1="410.19" y1="422.14" x2="418.18" y2="422.14"/>
    <path class="cls-3" d="M446.41,372.9h8"/>
    <path class="cls-5" d="M399.04,347.1c6.24-.18,7.99-.13,8,0,0,.09-.97.31-2.02.18-.51-.06-1.29-.16-1.83-.63-1.12-.98-1.11-3.53.27-4.99.99-1.05,2.57-1.42,4.1-1.03"/>
    <line class="cls-3" x1="337.32" y1="379.71" x2="345.32" y2="379.71"/>
    <line class="cls-3" x1="414.19" y1="364.95" x2="422.18" y2="364.95"/>
    <line class="cls-3" x1="511.24" y1="354.36" x2="519.24" y2="354.36"/>
    <line class="cls-3" x1="514.31" y1="424.14" x2="522.31" y2="424.14"/>
    <line class="cls-3" x1="704.74" y1="424.14" x2="712.74" y2="424.14"/>
    <line class="cls-3" x1="704.74" y1="379.38" x2="711.83" y2="379.38"/>
    <line class="cls-3" x1="711.44" y1="367.42" x2="718.52" y2="367.42"/>
    <line class="cls-3" x1="717.33" y1="392.11" x2="717.33" y2="399.2"/>
    <line class="cls-3" x1="717.33" y1="383.51" x2="717.33" y2="390.59"/>
    <line class="cls-3" x1="568.1" y1="429.37" x2="568.1" y2="436.45"/>
    <line class="cls-3" x1="757.98" y1="428.56" x2="757.98" y2="435.65"/>
    <line class="cls-3" x1="525.37" y1="354.36" x2="533.37" y2="354.36"/>
    <polyline class="cls-3" points="524.53 402.77 528.53 402.77 532.53 402.77"/>
    <line class="cls-3" x1="418.18" y1="360.54" x2="418.18" y2="375.74"/>
    <line class="cls-3" x1="522.31" y1="360.54" x2="520.97" y2="375.74"/>
    <line class="cls-3" x1="531.75" y1="375.74" x2="519.24" y2="391.21"/>
    <line class="cls-3" x1="525.37" y1="391.21" x2="519.94" y2="406.67"/>
    <line class="cls-3" x1="515.58" y1="406.67" x2="522.66" y2="422.14"/>
    <line class="cls-3" x1="497.59" y1="366.4" x2="505.18" y2="366.4"/>
    <line class="cls-3" x1="501.39" y1="364.45" x2="501.39" y2="368.14"/>
    <line class="cls-3" x1="536.75" y1="368.25" x2="544.34" y2="368.25"/>
    <line class="cls-3" x1="540.54" y1="366.29" x2="540.54" y2="369.99"/>
    <line class="cls-3" x1="533.97" y1="398.22" x2="541.55" y2="398.22"/>
    <line class="cls-3" x1="537.76" y1="396.26" x2="537.76" y2="399.95"/>
    <line class="cls-3" x1="520.87" y1="410.09" x2="528.53" y2="402.77"/>
    <circle class="cls-5" cx="609.33" cy="348.9" r="5.23"/>
    <line class="cls-3" x1="714.07" y1="382.89" x2="721.28" y2="391.21"/>
    <line class="cls-3" x1="609.33" y1="341.1" x2="609.33" y2="356.61"/>
    <line class="cls-3" x1="568.1" y1="432.91" x2="587.9" y2="432.91"/>
    <line class="cls-3" x1="736.18" y1="432.11" x2="757.98" y2="432.11"/>
    <path class="cls-5" d="M660.2,430.3c-2.46-.01-3.45-.03-5.91-.04-.72,0-2.23.04-2.86.31-1.41.61-1.81,1.54-1.81,2.66v6.97"/>
    <path class="cls-5" d="M718.83,342.33v8.76"/>
    <path class="cls-1" d="M513.05,354.37c-.02,1.43-.61,2.87-1.58,3.88-3.7,4.04-8.44-.99-7.77-5.29.02-.25.41-.24.4.02-.04,1.28.2,2.6.81,3.7,1.17,2.19,4.26,3.32,5.94,1.01.82-.93,1.25-2.12,1.22-3.33-.01-.66,1.01-.66.99,0h0Z"/>
    <path class="cls-1" d="M532.25,354.36c0,4.14,3.55,6.82,5.75,2.11.44-1.09.61-2.31.58-3.5-.01-.25.39-.27.4-.02.15,2.47-.49,5.44-3.01,6.58-2.9.99-4.72-2.78-4.72-5.17,0-.27.21-.5.48-.51.28,0,.51.22.51.5h0Z"/>
    <line class="cls-3" x1="719.64" y1="387.05" x2="715.01" y2="387.05"/>
  </g>
  <g id="_0.25" data-name="0.25">
    <line class="cls-7" x1="412.82" y1="343.01" x2="420.82" y2="343.01"/>
    <path class="cls-6" d="M700.44,345.4c-2.44,2.68-5.18,6.36-7.27,11.14-.46,1.06-1.9,4.49-2.79,9.21-.6,3.21-.7,5.72-.73,6.66-.16,5.78.94,10.1,1.33,11.51.53,1.9,1.11,3.44,1.56,4.49"/>
    <path class="cls-6" d="M568.4,352.43c-.07-.52-.07-1.03,0-1.51,2.17-16.05,73.84-18.3,82.65-18.53,6.63-.18,13.2-.18,19.83,0,8.81.24,80.46,2.49,82.65,18.53.04.33.09.85,0,1.51"/>
    <path class="cls-6" d="M454.27,372.9c1.73,1.23,4.75,3.76,6.65,7.98,1.47,3.28,1.61,6.11,1.72,8.96,0,0,.25,6.66-1.72,12.4-2.96,8.58-16.31,17.71-34.74,19.89"/>
    <path class="cls-6" d="M399.38,347.01c-2.68,1.34-7.88,4.4-11.72,10.3-2.66,4.1-3.61,7.93-3.9,9.21-.56,2.51-.67,4.68-.65,6.29"/>
    <path class="cls-6" d="M436.46,347.09c2.62,1.35,7.72,4.4,11.47,10.27,2.62,4.08,3.53,7.92,3.82,9.18.11.55.22,1.09.28,1.59"/>
  </g>
  <g id="_人" data-name="人">
    <image width="1174" height="2422" transform="translate(392 215.74) scale(.05)" xlink:href="../../../2024-APPLICATION/PORTFOLIO/01/封面照片 (2)/2.png"/>
    <image width="1312" height="2444" transform="translate(507.59 223.11) scale(.04)" xlink:href="../../../2024-APPLICATION/PORTFOLIO/01/封面照片 (2)/3.png"/>
    <image width="1850" height="1730" transform="translate(669.87 244.23) scale(.05)" xlink:href="../../../2024-APPLICATION/PORTFOLIO/01/封面照片 (2)/4.png"/>
    <image width="2825" height="3342" transform="translate(255.82 233.38) scale(.03)" xlink:href="../../../2024-APPLICATION/PORTFOLIO/01/封面照片 (2)/1.png"/>
  </g>
</svg>